<svg xmlns="http://www.w3.org/2000/svg" xmlns:xlink="http://www.w3.org/1999/xlink" width="500" zoomAndPan="magnify" viewBox="0 0 375 374.999991" height="500" preserveAspectRatio="xMidYMid meet" version="1.0"><defs><clipPath id="4c528d9789"><path d="M 170 337.402344 L 206.320312 337.402344 L 206.320312 357.1875 L 170 357.1875 Z M 170 337.402344 " clip-rule="nonzero"/></clipPath><clipPath id="827b772ee8"><path d="M 185 17.4375 L 191 17.4375 L 191 39 L 185 39 Z M 185 17.4375 " clip-rule="nonzero"/></clipPath><clipPath id="b89d2d84fe"><path d="M 345 203 L 374.992188 203 L 374.992188 208.160156 L 345 208.160156 Z M 345 203 " clip-rule="nonzero"/></clipPath></defs><path fill="#ffffff" d="M 157.707031 120.394531 C 144.0625 120.394531 132.621094 131.046875 131.660156 144.644531 L 131.5625 146.074219 L 130.273438 146.699219 C 116.855469 153.226562 108.523438 166.542969 108.523438 181.449219 C 108.523438 189.394531 110.925781 197.03125 115.46875 203.539062 L 116.066406 204.386719 L 115.875 205.410156 C 115.808594 205.761719 115.753906 206.117188 115.707031 206.472656 L 115.613281 207.175781 L 115.164062 207.722656 C 108.457031 215.875 104.761719 226.191406 104.761719 236.773438 C 104.761719 259.300781 121.542969 278.761719 143.796875 282.039062 L 144.769531 282.183594 L 145.382812 282.957031 C 151.402344 290.601562 160.855469 295.589844 172 297 C 173.757812 297.222656 175.46875 296.695312 176.804688 295.515625 C 178.140625 294.339844 178.902344 292.648438 178.902344 290.871094 L 178.902344 120.730469 C 178.902344 116.726562 175.992188 114.929688 173.5 114.601562 C 171.035156 114.28125 167.796875 115.265625 166.785156 119.089844 L 166.128906 121.667969 L 163.753906 121.105469 C 161.765625 120.632812 159.730469 120.394531 157.707031 120.394531 Z M 172.761719 302 C 172.300781 302 171.835938 301.972656 171.375 301.914062 C 159.304688 300.386719 148.957031 295.027344 142.109375 286.789062 C 130.566406 284.859375 119.996094 278.941406 112.261719 270.058594 C 104.230469 260.835938 99.808594 249.015625 99.808594 236.773438 C 99.808594 225.378906 103.671875 214.261719 110.710938 205.347656 C 106.035156 198.238281 103.566406 190 103.566406 181.449219 C 103.566406 173.117188 105.925781 165.019531 110.390625 158.027344 C 114.484375 151.621094 120.15625 146.410156 126.851562 142.878906 C 128.667969 127.382812 141.953125 115.441406 157.707031 115.441406 C 159.375 115.441406 161.050781 115.578125 162.707031 115.847656 C 164.722656 111.519531 169.171875 109.042969 174.140625 109.691406 C 178.820312 110.300781 183.859375 114.015625 183.859375 120.730469 L 183.859375 290.871094 C 183.859375 294.070312 182.480469 297.117188 180.082031 299.234375 C 178.046875 301.027344 175.4375 302 172.761719 302 " fill-opacity="1" fill-rule="nonzero"/><path fill="#ffffff" d="M 146.0625 286.882812 C 144.628906 286.882812 143.1875 286.785156 141.761719 286.585938 L 142.445312 281.679688 C 147.683594 282.40625 153.109375 281.535156 157.722656 279.214844 L 159.945312 283.644531 C 155.703125 285.773438 150.894531 286.882812 146.0625 286.882812 " fill-opacity="1" fill-rule="nonzero"/><path fill="#ffffff" d="M 161.003906 285.503906 C 163.210938 284.183594 163.929688 281.324219 162.609375 279.117188 C 161.289062 276.910156 158.429688 276.191406 156.222656 277.515625 C 154.015625 278.835938 153.296875 281.695312 154.617188 283.902344 C 155.9375 286.105469 158.800781 286.824219 161.003906 285.503906 " fill-opacity="1" fill-rule="nonzero"/><path fill="#ffffff" d="M 134.402344 225.027344 C 124.535156 220.871094 116.347656 214.054688 110.726562 205.3125 L 114.894531 202.632812 C 119.972656 210.53125 127.382812 216.695312 136.328125 220.460938 L 134.402344 225.027344 " fill-opacity="1" fill-rule="nonzero"/><path fill="#ffffff" d="M 133.515625 227.007812 C 135.921875 227.910156 138.605469 226.691406 139.511719 224.285156 C 140.414062 221.878906 139.195312 219.195312 136.789062 218.289062 C 134.382812 217.386719 131.699219 218.601562 130.792969 221.007812 C 129.890625 223.417969 131.105469 226.101562 133.515625 227.007812 " fill-opacity="1" fill-rule="nonzero"/><path fill="#ffffff" d="M 122.550781 151.65625 L 119.585938 147.6875 C 127.914062 141.46875 137.96875 137.953125 148.664062 137.515625 L 148.867188 142.464844 C 139.171875 142.863281 130.070312 146.039062 122.550781 151.65625 " fill-opacity="1" fill-rule="nonzero"/><path fill="#ffffff" d="M 148.542969 144.664062 C 151.113281 144.660156 153.195312 142.570312 153.191406 140 C 153.1875 137.429688 151.097656 135.347656 148.527344 135.351562 C 145.957031 135.355469 143.875 137.441406 143.878906 140.015625 C 143.882812 142.585938 145.96875 144.667969 148.542969 144.664062 " fill-opacity="1" fill-rule="nonzero"/><path fill="#ffffff" d="M 156.003906 171.175781 L 153.117188 167.148438 C 160.089844 162.15625 165.148438 154.5625 167 146.316406 C 169.175781 136.644531 166.984375 126.085938 161.148438 118.074219 L 165.152344 115.15625 C 171.816406 124.304688 174.316406 136.359375 171.835938 147.402344 C 169.71875 156.820312 163.949219 165.484375 156.003906 171.175781 " fill-opacity="1" fill-rule="nonzero"/><path fill="#ffffff" d="M 152.242188 165.089844 C 150.074219 166.46875 149.433594 169.347656 150.8125 171.515625 C 152.195312 173.6875 155.070312 174.324219 157.242188 172.945312 C 159.410156 171.566406 160.050781 168.6875 158.671875 166.519531 C 157.292969 164.347656 154.414062 163.707031 152.242188 165.089844 " fill-opacity="1" fill-rule="nonzero"/><path fill="#ffffff" d="M 180.695312 250.992188 C 173.53125 248.929688 167.085938 243.109375 162.058594 234.164062 C 160.316406 231.066406 158.816406 227.828125 157.367188 224.699219 C 155.460938 220.578125 153.65625 216.683594 151.335938 213.035156 C 147.101562 206.382812 141.214844 200.808594 134.300781 196.910156 L 136.734375 192.597656 C 144.351562 196.894531 150.847656 203.042969 155.511719 210.371094 C 158.015625 214.304688 159.972656 218.53125 161.863281 222.617188 C 163.273438 225.664062 164.730469 228.808594 166.375 231.734375 C 169.429688 237.167969 174.628906 244.089844 182.066406 246.234375 L 180.695312 250.992188 " fill-opacity="1" fill-rule="nonzero"/><path fill="#ffffff" d="M 133.566406 199.027344 C 131.285156 197.847656 130.390625 195.039062 131.570312 192.753906 C 132.75 190.46875 135.5625 189.574219 137.84375 190.753906 C 140.128906 191.9375 141.023438 194.746094 139.84375 197.03125 C 138.664062 199.3125 135.851562 200.207031 133.566406 199.027344 " fill-opacity="1" fill-rule="nonzero"/><path fill="#ffffff" d="M 203.621094 114.546875 C 203.316406 114.546875 203.023438 114.566406 202.738281 114.601562 C 200.246094 114.929688 197.335938 116.726562 197.335938 120.730469 L 197.335938 290.871094 C 197.335938 292.648438 198.101562 294.339844 199.433594 295.515625 C 200.773438 296.695312 202.480469 297.222656 204.242188 297 C 215.382812 295.589844 224.835938 290.601562 230.859375 282.957031 L 231.46875 282.183594 L 232.445312 282.039062 C 254.699219 278.761719 271.480469 259.300781 271.480469 236.773438 C 271.480469 226.191406 267.785156 215.875 261.078125 207.722656 L 260.625 207.175781 L 260.535156 206.472656 C 260.484375 206.113281 260.429688 205.757812 260.363281 205.40625 L 260.175781 204.386719 L 260.769531 203.539062 C 265.316406 197.03125 267.71875 189.394531 267.71875 181.449219 C 267.71875 166.542969 259.382812 153.226562 245.964844 146.699219 L 244.679688 146.074219 L 244.578125 144.644531 C 243.617188 131.046875 232.175781 120.394531 218.53125 120.394531 C 216.511719 120.394531 214.476562 120.632812 212.484375 121.105469 L 210.109375 121.667969 L 209.457031 119.085938 C 208.558594 115.707031 205.921875 114.546875 203.621094 114.546875 Z M 203.480469 302 C 200.804688 302 198.195312 301.027344 196.160156 299.234375 C 193.757812 297.117188 192.382812 294.070312 192.382812 290.871094 L 192.382812 120.730469 C 192.382812 114.015625 197.417969 110.300781 202.101562 109.691406 C 207.070312 109.042969 211.515625 111.519531 213.53125 115.847656 C 215.191406 115.578125 216.863281 115.441406 218.53125 115.441406 C 234.289062 115.441406 247.574219 127.382812 249.386719 142.878906 C 256.085938 146.410156 261.757812 151.621094 265.847656 158.027344 C 270.3125 165.019531 272.671875 173.117188 272.671875 181.449219 C 272.671875 190 270.203125 198.238281 265.527344 205.347656 C 272.566406 214.261719 276.433594 225.378906 276.433594 236.773438 C 276.433594 249.015625 272.011719 260.835938 263.980469 270.058594 C 256.242188 278.941406 245.675781 284.859375 234.132812 286.789062 C 227.285156 295.027344 216.933594 300.386719 204.867188 301.914062 C 204.402344 301.972656 203.941406 302 203.480469 302 " fill-opacity="1" fill-rule="nonzero"/><path fill="#ffffff" d="M 230.175781 286.882812 C 225.34375 286.882812 220.535156 285.773438 216.292969 283.644531 L 218.515625 279.214844 C 223.132812 281.535156 228.558594 282.410156 233.796875 281.679688 L 234.480469 286.585938 C 233.050781 286.785156 231.613281 286.882812 230.175781 286.882812 " fill-opacity="1" fill-rule="nonzero"/><path fill="#ffffff" d="M 220.015625 277.515625 C 217.8125 276.191406 214.953125 276.910156 213.628906 279.117188 C 212.3125 281.324219 213.027344 284.183594 215.234375 285.503906 C 217.441406 286.824219 220.300781 286.105469 221.621094 283.902344 C 222.941406 281.695312 222.222656 278.835938 220.015625 277.515625 " fill-opacity="1" fill-rule="nonzero"/><path fill="#ffffff" d="M 241.835938 225.027344 L 239.914062 220.460938 C 248.855469 216.695312 256.269531 210.53125 261.34375 202.632812 L 265.511719 205.3125 C 259.890625 214.054688 251.703125 220.871094 241.835938 225.027344 " fill-opacity="1" fill-rule="nonzero"/><path fill="#ffffff" d="M 239.449219 218.289062 C 237.042969 219.195312 235.824219 221.878906 236.730469 224.285156 C 237.632812 226.691406 240.320312 227.910156 242.726562 227.007812 C 245.132812 226.101562 246.351562 223.417969 245.445312 221.007812 C 244.542969 218.601562 241.855469 217.386719 239.449219 218.289062 " fill-opacity="1" fill-rule="nonzero"/><path fill="#ffffff" d="M 253.6875 151.65625 C 246.167969 146.039062 237.066406 142.863281 227.371094 142.464844 L 227.574219 137.515625 C 238.273438 137.953125 248.328125 141.46875 256.65625 147.6875 L 253.6875 151.65625 " fill-opacity="1" fill-rule="nonzero"/><path fill="#ffffff" d="M 227.714844 135.351562 C 225.140625 135.347656 223.054688 137.429688 223.050781 140 C 223.046875 142.570312 225.125 144.660156 227.699219 144.664062 C 230.269531 144.667969 232.359375 142.585938 232.363281 140.015625 C 232.367188 137.441406 230.285156 135.355469 227.714844 135.351562 " fill-opacity="1" fill-rule="nonzero"/><path fill="#ffffff" d="M 220.238281 171.175781 C 212.292969 165.484375 206.519531 156.820312 204.40625 147.402344 C 201.925781 136.359375 204.421875 124.304688 211.089844 115.15625 L 215.09375 118.074219 C 209.253906 126.085938 207.066406 136.644531 209.238281 146.316406 C 211.09375 154.5625 216.152344 162.15625 223.121094 167.148438 L 220.238281 171.175781 " fill-opacity="1" fill-rule="nonzero"/><path fill="#ffffff" d="M 219 172.945312 C 221.167969 174.324219 224.046875 173.6875 225.425781 171.515625 C 226.804688 169.347656 226.167969 166.46875 223.996094 165.089844 C 221.828125 163.707031 218.949219 164.347656 217.566406 166.519531 C 216.1875 168.6875 216.828125 171.566406 219 172.945312 " fill-opacity="1" fill-rule="nonzero"/><path fill="#ffffff" d="M 195.542969 250.992188 L 194.175781 246.234375 C 201.613281 244.089844 206.8125 237.167969 209.863281 231.734375 C 211.511719 228.808594 212.964844 225.664062 214.375 222.617188 C 216.269531 218.53125 218.226562 214.304688 220.726562 210.371094 C 225.390625 203.042969 231.886719 196.894531 239.507812 192.597656 L 241.941406 196.910156 C 235.027344 200.808594 229.136719 206.382812 224.90625 213.035156 C 222.582031 216.683594 220.777344 220.578125 218.871094 224.699219 C 217.421875 227.832031 215.925781 231.066406 214.183594 234.164062 C 209.15625 243.109375 202.710938 248.929688 195.542969 250.992188 " fill-opacity="1" fill-rule="nonzero"/><path fill="#ffffff" d="M 238.394531 190.753906 C 240.679688 189.574219 243.488281 190.46875 244.671875 192.753906 C 245.851562 195.039062 244.957031 197.847656 242.671875 199.027344 C 240.386719 200.207031 237.578125 199.3125 236.398438 197.03125 C 235.214844 194.746094 236.109375 191.9375 238.394531 190.753906 " fill-opacity="1" fill-rule="nonzero"/><path fill="#ffffff" d="M 210.785156 311.152344 L 165.457031 311.152344 C 164.089844 311.152344 162.976562 310.042969 162.976562 308.675781 C 162.976562 307.308594 164.089844 306.199219 165.457031 306.199219 L 210.785156 306.199219 C 212.152344 306.199219 213.261719 307.308594 213.261719 308.675781 C 213.261719 310.042969 212.152344 311.152344 210.785156 311.152344 " fill-opacity="1" fill-rule="nonzero"/><path fill="#ffffff" d="M 210.785156 320.914062 L 165.457031 320.914062 C 164.089844 320.914062 162.976562 319.804688 162.976562 318.4375 C 162.976562 317.070312 164.089844 315.960938 165.457031 315.960938 L 210.785156 315.960938 C 212.152344 315.960938 213.261719 317.070312 213.261719 318.4375 C 213.261719 319.804688 212.152344 320.914062 210.785156 320.914062 " fill-opacity="1" fill-rule="nonzero"/><path fill="#ffffff" d="M 210.785156 330.675781 L 165.457031 330.675781 C 164.089844 330.675781 162.976562 329.566406 162.976562 328.199219 C 162.976562 326.832031 164.089844 325.722656 165.457031 325.722656 L 210.785156 325.722656 C 212.152344 325.722656 213.261719 326.832031 213.261719 328.199219 C 213.261719 329.566406 212.152344 330.675781 210.785156 330.675781 " fill-opacity="1" fill-rule="nonzero"/><path fill="#ffffff" d="M 210.785156 340.4375 L 165.457031 340.4375 C 164.089844 340.4375 162.976562 339.328125 162.976562 337.960938 C 162.976562 336.59375 164.089844 335.484375 165.457031 335.484375 L 210.785156 335.484375 C 212.152344 335.484375 213.261719 336.59375 213.261719 337.960938 C 213.261719 339.328125 212.152344 340.4375 210.785156 340.4375 " fill-opacity="1" fill-rule="nonzero"/><g clip-path="url(#4c528d9789)"><path fill="#ffffff" d="M 188.121094 357.546875 C 178.136719 357.546875 170.011719 349.421875 170.011719 339.4375 L 170.015625 339.117188 L 174.96875 339.195312 L 174.964844 339.4375 C 174.964844 346.691406 180.867188 352.589844 188.121094 352.589844 C 195.375 352.589844 201.273438 346.691406 201.273438 339.4375 C 201.273438 339.019531 201.253906 338.601562 201.214844 338.191406 L 206.148438 337.730469 C 206.199219 338.292969 206.226562 338.867188 206.226562 339.4375 C 206.226562 349.421875 198.105469 357.546875 188.121094 357.546875 " fill-opacity="1" fill-rule="nonzero"/></g><path fill="#ffffff" d="M 188.121094 85.566406 C 186.75 85.566406 185.644531 84.457031 185.644531 83.089844 L 185.644531 65.953125 C 185.644531 64.585938 186.75 63.476562 188.121094 63.476562 C 189.488281 63.476562 190.597656 64.585938 190.597656 65.953125 L 190.597656 83.089844 C 190.597656 84.457031 189.488281 85.566406 188.121094 85.566406 " fill-opacity="1" fill-rule="nonzero"/><g clip-path="url(#827b772ee8)"><path fill="#ffffff" d="M 188.121094 38.273438 C 186.75 38.273438 185.644531 37.164062 185.644531 35.796875 L 185.644531 19.929688 C 185.644531 18.5625 186.75 17.453125 188.121094 17.453125 C 189.488281 17.453125 190.597656 18.5625 190.597656 19.929688 L 190.597656 35.796875 C 190.597656 37.164062 189.488281 38.273438 188.121094 38.273438 " fill-opacity="1" fill-rule="nonzero"/></g><path fill="#ffffff" d="M 274.105469 121.699219 C 273.472656 121.699219 272.839844 121.457031 272.355469 120.972656 C 271.386719 120.007812 271.386719 118.4375 272.355469 117.472656 L 295.234375 94.59375 C 296.203125 93.625 297.769531 93.625 298.734375 94.59375 C 299.703125 95.558594 299.703125 97.128906 298.734375 98.09375 L 275.855469 120.972656 C 275.375 121.457031 274.738281 121.699219 274.105469 121.699219 " fill-opacity="1" fill-rule="nonzero"/><path fill="#ffffff" d="M 304.710938 91.097656 C 304.074219 91.097656 303.441406 90.855469 302.957031 90.371094 C 301.992188 89.402344 301.992188 87.835938 302.957031 86.867188 L 317.015625 72.8125 C 317.984375 71.84375 319.550781 71.84375 320.515625 72.8125 C 321.484375 73.777344 321.484375 75.347656 320.515625 76.3125 L 306.460938 90.371094 C 305.976562 90.855469 305.34375 91.097656 304.710938 91.097656 " fill-opacity="1" fill-rule="nonzero"/><path fill="#ffffff" d="M 330.574219 208.050781 L 309.359375 208.050781 C 307.988281 208.050781 306.878906 206.941406 306.878906 205.574219 C 306.878906 204.207031 307.988281 203.097656 309.359375 203.097656 L 330.574219 203.097656 C 331.945312 203.097656 333.054688 204.207031 333.054688 205.574219 C 333.054688 206.941406 331.945312 208.050781 330.574219 208.050781 " fill-opacity="1" fill-rule="nonzero"/><g clip-path="url(#b89d2d84fe)"><path fill="#ffffff" d="M 372.519531 208.050781 L 347.492188 208.050781 C 346.125 208.050781 345.015625 206.941406 345.015625 205.574219 C 345.015625 204.207031 346.125 203.097656 347.492188 203.097656 L 372.519531 203.097656 C 373.882812 203.097656 374.992188 204.207031 374.992188 205.574219 C 374.992188 206.941406 373.882812 208.050781 372.519531 208.050781 " fill-opacity="1" fill-rule="nonzero"/></g><path fill="#ffffff" d="M 284.703125 305.515625 C 284.070312 305.515625 283.433594 305.273438 282.949219 304.789062 L 271.472656 293.3125 C 270.507812 292.34375 270.507812 290.773438 271.472656 289.808594 C 272.441406 288.839844 274.007812 288.839844 274.976562 289.808594 L 286.453125 301.289062 C 287.421875 302.253906 287.421875 303.820312 286.453125 304.789062 C 285.972656 305.273438 285.335938 305.515625 284.703125 305.515625 " fill-opacity="1" fill-rule="nonzero"/><path fill="#ffffff" d="M 316.132812 337.972656 L 292.878906 314.71875 C 291.914062 313.75 291.914062 312.183594 292.878906 311.214844 C 293.847656 310.246094 295.414062 310.246094 296.382812 311.214844 L 319.636719 334.46875 L 316.132812 337.972656 " fill-opacity="1" fill-rule="nonzero"/><path fill="#ffffff" d="M 95.328125 298.714844 C 94.695312 298.714844 94.0625 298.472656 93.578125 297.988281 C 92.609375 297.019531 92.609375 295.453125 93.578125 294.484375 L 99.136719 288.925781 C 100.105469 287.960938 101.671875 287.960938 102.640625 288.925781 C 103.605469 289.894531 103.605469 291.460938 102.640625 292.429688 L 97.082031 297.988281 C 96.597656 298.472656 95.964844 298.714844 95.328125 298.714844 " fill-opacity="1" fill-rule="nonzero"/><path fill="#ffffff" d="M 56.226562 337.816406 C 55.59375 337.816406 54.960938 337.574219 54.476562 337.089844 C 53.507812 336.125 53.507812 334.554688 54.476562 333.585938 L 74.824219 313.238281 C 75.792969 312.273438 77.359375 312.273438 78.328125 313.238281 C 79.292969 314.207031 79.292969 315.773438 78.328125 316.742188 L 57.980469 337.089844 C 57.496094 337.574219 56.859375 337.816406 56.226562 337.816406 " fill-opacity="1" fill-rule="nonzero"/><path fill="#ffffff" d="M 65.636719 206.804688 L 43.019531 206.804688 C 41.652344 206.804688 40.542969 205.695312 40.542969 204.328125 C 40.542969 202.960938 41.652344 201.851562 43.019531 201.851562 L 65.636719 201.851562 C 67.003906 201.851562 68.113281 202.960938 68.113281 204.328125 C 68.113281 205.695312 67.003906 206.804688 65.636719 206.804688 " fill-opacity="1" fill-rule="nonzero"/><path fill="#ffffff" d="M 26.839844 206.804688 L 2.476562 206.804688 C 1.109375 206.804688 0 205.695312 0 204.328125 C 0 202.960938 1.109375 201.851562 2.476562 201.851562 L 26.839844 201.851562 C 28.207031 201.851562 29.316406 202.960938 29.316406 204.328125 C 29.316406 205.695312 28.207031 206.804688 26.839844 206.804688 " fill-opacity="1" fill-rule="nonzero"/><path fill="#ffffff" d="M 101.769531 120.816406 C 101.136719 120.816406 100.5 120.578125 100.015625 120.09375 L 87.472656 107.546875 C 86.503906 106.578125 86.503906 105.011719 87.472656 104.046875 C 88.441406 103.078125 90.007812 103.078125 90.976562 104.046875 L 103.523438 116.589844 C 104.488281 117.558594 104.488281 119.125 103.523438 120.09375 C 103.039062 120.578125 102.402344 120.816406 101.769531 120.816406 " fill-opacity="1" fill-rule="nonzero"/><path fill="#ffffff" d="M 75.617188 94.667969 C 74.984375 94.667969 74.347656 94.425781 73.867188 93.941406 L 55.355469 75.433594 C 54.390625 74.464844 54.390625 72.898438 55.355469 71.929688 C 56.324219 70.960938 57.894531 70.960938 58.859375 71.929688 L 77.371094 90.4375 C 78.335938 91.40625 78.335938 92.976562 77.371094 93.941406 C 76.886719 94.425781 76.25 94.667969 75.617188 94.667969 " fill-opacity="1" fill-rule="nonzero"/><path fill="#ffffff" d="M 148.015625 99.371094 C 147.191406 99.371094 146.386719 98.960938 145.914062 98.214844 L 138.722656 86.785156 C 137.992188 85.625 138.34375 84.097656 139.5 83.371094 C 140.65625 82.640625 142.1875 82.988281 142.914062 84.144531 L 150.109375 95.574219 C 150.835938 96.730469 150.488281 98.257812 149.332031 98.988281 C 148.921875 99.246094 148.464844 99.371094 148.015625 99.371094 " fill-opacity="1" fill-rule="nonzero"/><path fill="#ffffff" d="M 132.578125 74.851562 C 131.757812 74.851562 130.949219 74.441406 130.480469 73.691406 L 120.386719 57.660156 C 119.660156 56.503906 120.007812 54.972656 121.164062 54.246094 C 122.324219 53.515625 123.851562 53.863281 124.578125 55.019531 L 134.671875 71.054688 C 135.402344 72.210938 135.054688 73.738281 133.898438 74.46875 C 133.488281 74.726562 133.03125 74.851562 132.578125 74.851562 " fill-opacity="1" fill-rule="nonzero"/><path fill="#ffffff" d="M 229.355469 99.371094 C 228.902344 99.371094 228.449219 99.246094 228.039062 98.988281 C 226.878906 98.257812 226.53125 96.730469 227.261719 95.574219 L 235.433594 82.589844 C 236.164062 81.429688 237.691406 81.085938 238.851562 81.8125 C 240.007812 82.542969 240.355469 84.070312 239.628906 85.226562 L 231.453125 98.210938 C 230.984375 98.960938 230.179688 99.371094 229.355469 99.371094 " fill-opacity="1" fill-rule="nonzero"/><path fill="#ffffff" d="M 246.886719 71.519531 C 246.4375 71.519531 245.980469 71.394531 245.570312 71.136719 C 244.414062 70.410156 244.066406 68.878906 244.792969 67.722656 L 252.789062 55.019531 C 253.519531 53.863281 255.046875 53.515625 256.203125 54.246094 C 257.363281 54.972656 257.710938 56.503906 256.980469 57.660156 L 248.984375 70.359375 C 248.515625 71.109375 247.710938 71.519531 246.886719 71.519531 " fill-opacity="1" fill-rule="nonzero"/><path fill="#ffffff" d="M 78.410156 162.699219 L 56.929688 152.875 C 55.683594 152.308594 55.136719 150.835938 55.707031 149.59375 C 56.277344 148.351562 57.746094 147.800781 58.988281 148.371094 L 80.46875 158.195312 L 78.410156 162.699219 " fill-opacity="1" fill-rule="nonzero"/><path fill="#ffffff" d="M 43.230469 146.367188 C 42.886719 146.367188 42.535156 146.292969 42.203125 146.140625 L 22.996094 137.355469 C 21.75 136.789062 21.203125 135.316406 21.773438 134.074219 C 22.34375 132.828125 23.8125 132.28125 25.054688 132.851562 L 44.261719 141.636719 C 45.507812 142.203125 46.054688 143.675781 45.484375 144.917969 C 45.070312 145.828125 44.167969 146.367188 43.230469 146.367188 " fill-opacity="1" fill-rule="nonzero"/><path fill="#ffffff" d="M 296.585938 162.699219 L 294.523438 158.195312 L 316.671875 148.066406 C 317.917969 147.496094 319.386719 148.042969 319.957031 149.289062 C 320.523438 150.53125 319.980469 152 318.734375 152.570312 L 296.585938 162.699219 " fill-opacity="1" fill-rule="nonzero"/><path fill="#ffffff" d="M 342.300781 141.546875 C 341.359375 141.546875 340.464844 141.007812 340.046875 140.097656 C 339.476562 138.855469 340.023438 137.386719 341.269531 136.816406 L 349.9375 132.851562 C 351.183594 132.28125 352.648438 132.828125 353.222656 134.074219 C 353.789062 135.316406 353.242188 136.789062 352 137.355469 L 343.332031 141.320312 C 342.996094 141.472656 342.648438 141.546875 342.300781 141.546875 " fill-opacity="1" fill-rule="nonzero"/><path fill="#ffffff" d="M 63.847656 256.96875 C 62.960938 256.96875 62.105469 256.492188 61.660156 255.652344 C 61.015625 254.445312 61.476562 252.945312 62.683594 252.304688 L 77.398438 244.492188 C 78.605469 243.851562 80.105469 244.3125 80.746094 245.519531 C 81.386719 246.726562 80.929688 248.226562 79.71875 248.867188 L 65.007812 256.679688 C 64.636719 256.875 64.242188 256.96875 63.847656 256.96875 " fill-opacity="1" fill-rule="nonzero"/><path fill="#ffffff" d="M 29.644531 275.457031 L 27.320312 271.082031 L 49.132812 259.5 C 50.34375 258.859375 51.839844 259.316406 52.480469 260.527344 C 53.125 261.734375 52.664062 263.234375 51.457031 263.875 L 29.644531 275.457031 " fill-opacity="1" fill-rule="nonzero"/><path fill="#ffffff" d="M 308.300781 254.507812 C 307.910156 254.507812 307.511719 254.414062 307.140625 254.21875 L 297.0625 248.867188 C 295.855469 248.226562 295.394531 246.726562 296.035156 245.519531 C 296.679688 244.3125 298.179688 243.851562 299.386719 244.492188 L 309.464844 249.84375 C 310.671875 250.484375 311.132812 251.984375 310.492188 253.191406 C 310.046875 254.03125 309.1875 254.507812 308.300781 254.507812 " fill-opacity="1" fill-rule="nonzero"/><path fill="#ffffff" d="M 348.296875 275.746094 C 347.90625 275.746094 347.507812 275.652344 347.136719 275.457031 L 322.804688 262.535156 C 321.597656 261.894531 321.136719 260.394531 321.777344 259.1875 C 322.421875 257.980469 323.921875 257.519531 325.128906 258.160156 L 349.460938 271.082031 C 350.667969 271.722656 351.128906 273.222656 350.488281 274.429688 C 350.042969 275.265625 349.183594 275.746094 348.296875 275.746094 " fill-opacity="1" fill-rule="nonzero"/></svg>